<svg xmlns="http://www.w3.org/2000/svg" viewBox="0 0 48 48">
  <path
    d="M24 2C11.85 2 2 11.85 2 24v14c0 4.42 3.58 8 8 8h28c4.42 0 8-3.58 8-8V24C46 11.85 36.15 2 24 2Z"
    fill="#173b2b"
  />
  <path
    d="M12.5 12.5v23M13 25l12.5-12.5M13 25l14 10.5"
    fill="none"
    stroke="#f4f1e8"
    stroke-linecap="round"
    stroke-linejoin="round"
    stroke-width="3.5"
  />
  <path
    d="M37 15c-2.35-3.75-10.6-3.2-11.8 1.3-1.5 5.5 11.2 5.1 11 12.2-.15 6-9.05 9.7-12.3 4.2"
    fill="none"
    stroke="#e3a008"
    stroke-linecap="round"
    stroke-linejoin="round"
    stroke-width="3.5"
  />
</svg>
